:SAMPLES-PER-SECOND 30
:FULLY-SPECIFIED
:DEGREES
269
root  -42.5556 38.1854 -0.767353 5.6783 -40.2653 -3.66338
RightUpLeg  -5.39493 -20.3214 -5.58796
RightLeg  14.9293 2.73293 0.543272
RightFoot  26.8911 -0.220047 1.44143
RightToes  -38.9599 -0.210228 -0.309171
Spine  -5.36784 2.49813 -0.0540011
Spine1  -10.8582 5.44655 -0.0796978
HEad  -95.1051 9.56929 0.465023
LeftShoulder1  -1.94126e-019 -3.10601e-018 -2.51263e-017
LeftArm  -80.8373 -45.9618 40.6251
LeftForeArm  60.261 -40.0673 -5.83353
LeftHand  -1.03738 -10.3783 8.01709
RightShoulder  -4.96962e-017 0 -2.36833e-017
RightArm  -111.976 40.9512 -41.0672
RightForeArm  66.0005 4.0634 0.658913
RightHand  -0.217765 -3.63779 -13.699
LeftUpLeg  -8.97765 7.84964 8.15623
LeftLeg  24.6503 0.329961 0.122802
LeftFoot  21.683 -0.0426139 0.384023
LeftToes  -35.8186 1.70063e-006 7.6642e-008
270
root  -42.269 37.9966 -0.351345 4.74966 -37.7933 -2.61301
RightUpLeg  -6.39036 -17.3778 -4.81255
RightLeg  15.0522 8.553 1.71414
RightFoot  23.3567 -0.644977 3.60775
RightToes  -41.2447 -0.228502 -0.322045
Spine  -5.04439 2.49473 -0.533768
Spine1  -10.2964 5.3864 -1.08851
HEad  -96.3382 7.98261 1.6145
LeftShoulder1  -1.94126e-019 -3.10601e-018 -2.51263e-017
LeftArm  -97.4933 -50.254 40.8422
LeftForeArm  54.6311 -36.3796 -5.12391
LeftHand  -1.24428 -6.46792 12.4716
RightShoulder  -4.96962e-017 0 -2.36833e-017
RightArm  -120.916 39.3031 -40.0138
RightForeArm  68.7719 4.84207 0.793419
RightHand  -0.0608711 -5.03385 -15.2982
LeftUpLeg  -8.17993 5.43962 8.07249
LeftLeg  21.6376 10.7015 3.44063
LeftFoot  17.759 -0.552965 3.6999
LeftToes  -30.9589 1.70063e-006 7.6642e-008
271
root  -41.9596 37.3777 -0.0111254 4.54911 -35.168 -2.00681
RightUpLeg  -8.44862 -13.5011 -3.70112
RightLeg  15.9991 15.1787 3.27585
RightFoot  19.2563 -0.824173 5.30467
RightToes  -44.0237 -0.251397 -0.336705
Spine  -4.78844 2.04879 -0.669913
Spine1  -9.78304 4.43629 -1.28666
HEad  -96.4444 7.56599 2.36441
LeftShoulder1  -1.94126e-019 -3.10601e-018 -2.51263e-017
LeftArm  -106.732 -51.4203 36.2569
LeftForeArm  37.414 -41.5866 -7.48122
LeftHand  -0.832909 -1.8261 13.5624
RightShoulder  -4.96962e-017 0 -2.36833e-017
RightArm  -115.288 39.0281 -36.6117
RightForeArm  54.7799 12.4507 1.45653
RightHand  -0.23304 -3.56859 -14.1815
LeftUpLeg  -8.51362 4.27579 8.41902
LeftLeg  19.4901 17.0401 4.74015
LeftFoot  16.9553 -0.802807 5.54376
LeftToes  -27.6338 1.70063e-006 7.6642e-008
272
root  -41.5993 36.3197 0.341715 4.36857 -32.3718 -1.86369
RightUpLeg  -11.37 -11.221 -2.47396
RightLeg  19.6035 16.7195 4.69517
RightFoot  15.9504 -0.631457 4.94347
RightToes  -38.1396 -0.203795 -0.304374
Spine  -4.40988 1.23952 -0.671419
Spine1  -8.96903 2.67346 -1.00029
HEad  -94.9753 7.52354 2.5667
LeftShoulder1  -1.94126e-019 -3.10601e-018 -2.51263e-017
LeftArm  -106.506 -49.7765 29.0658
LeftForeArm  20.0116 -51.9196 -12.741
LeftHand  -0.43339 1.5507 13.0316
RightShoulder  -4.96962e-017 0 -2.36833e-017
RightArm  -104.094 37.5855 -31.8535
RightForeArm  38.106 23.7478 3.03783
RightHand  -0.0755946 -4.81727 -12.0794
LeftUpLeg  -10.0943 3.78829 8.96783
LeftLeg  20.0783 16.5271 4.78199
LeftFoot  18.9172 -0.966188 5.9562
LeftToes  -28.3653 1.70063e-006 7.6642e-008
273
root  -41.1825 34.8796 0.718991 3.4687 -29.493 -1.40929
RightUpLeg  -15.1195 -11.7264 -2.53708
RightLeg  30.4038 8.09678 4.04691
RightFoot  3.28319 -0.0033755 0.598101
RightToes  -28.068 -0.130846 -0.238317
Spine  -3.75344 0.574876 -0.574676
Spine1  -7.64392 1.23343 -0.601393
HEad  -93.5549 6.93511 1.90109
LeftShoulder1  -1.94126e-019 -3.10601e-018 -2.51263e-017
LeftArm  -101.172 -45.8732 22.102
LeftForeArm  19.5228 -62.3677 -20.0454
LeftHand  -0.533138 0.658145 13.1012
RightShoulder  -4.96962e-017 0 -2.36833e-017
RightArm  -97.2284 34.9612 -26.5366
RightForeArm  37.8255 42.0281 7.48067
RightHand  0.0321496 -5.89889 -11.8592
LeftUpLeg  -12.3557 3.89852 8.64964
LeftLeg  25.7525 12.731 5.10227
LeftFoot  10.0616 -0.216251 2.61773
LeftToes  -37.2005 1.70063e-006 7.6642e-008
274
root  -40.7339 33.5095 1.06804 1.33599 -26.6834 -0.823658
RightUpLeg  -17.4018 -13.4821 -3.81358
RightLeg  40.3669 3.82036 2.817
RightFoot  -5.96155 -0.046214 -0.368917
RightToes  -24.0176 -0.104969 -0.208314
Spine  -2.78875 0.308164 -0.360392
Spine1  -5.7685 0.70778 -0.16077
HEad  -92.9599 5.97159 1.60774
LeftShoulder1  -1.94126e-019 -3.10601e-018 -2.51263e-017
LeftArm  -91.9234 -40.6012 15.5792
LeftForeArm  40.2964 -72.4484 -32.9399
LeftHand  -0.679297 -0.628047 13.2136
RightShoulder  -4.96962e-017 0 -2.36833e-017
RightArm  -89.9811 30.686 -21.0307
RightForeArm  48.7269 61.8789 16.1197
RightHand  -0.0739668 -4.86481 -12.9346
LeftUpLeg  -14.5349 5.91171 7.81369
LeftLeg  33.5297 8.33806 4.75155
LeftFoot  -1.49241 -0.00318095 -0.0827114
LeftToes  -35.3401 1.70063e-006 7.6642e-008
